<svg width="14" height="15" viewBox="0 0 14 15" fill="none" xmlns="http://www.w3.org/2000/svg">
<path d="M13.9997 7.30418C13.9997 3.27023 10.8657 0 6.99984 0C3.13397 0 0 3.27023 0 7.30418C0 10.7295 2.26011 13.6039 5.30896 14.3933V9.53634H3.86559V7.30418H5.30896V6.34236C5.30896 3.85631 6.38721 2.70401 8.72628 2.70401C9.16979 2.70401 9.93501 2.79487 10.248 2.88544V4.9087C10.0828 4.89059 9.79585 4.88153 9.43942 4.88153C8.29173 4.88153 7.84822 5.33526 7.84822 6.51474V7.30418H10.1346L9.74182 9.53634H7.84822V14.5549C11.3143 14.1181 14 11.0387 14 7.30418H13.9997Z" fill="#0866FF"/>
</svg>
