<svg width="28" height="28" viewBox="0 0 28 28" fill="none" xmlns="http://www.w3.org/2000/svg">
<rect x="0.5" y="0.5" width="27" height="27" rx="3.5" fill="white"/>
<rect x="0.5" y="0.5" width="27" height="27" rx="3.5" stroke="black"/>
<path d="M15.75 11C15.75 10.8011 15.671 10.6103 15.5303 10.4697C15.3897 10.329 15.1989 10.25 15 10.25C14.8011 10.25 14.6103 10.329 14.4697 10.4697C14.329 10.6103 14.25 10.8011 14.25 11V12.25H13C12.8011 12.25 12.6103 12.329 12.4697 12.4697C12.329 12.6103 12.25 12.8011 12.25 13C12.25 13.1989 12.329 13.3897 12.4697 13.5303C12.6103 13.671 12.8011 13.75 13 13.75H14.25V15C14.25 15.1989 14.329 15.3897 14.4697 15.5303C14.6103 15.671 14.8011 15.75 15 15.75C15.1989 15.75 15.3897 15.671 15.5303 15.5303C15.671 15.3897 15.75 15.1989 15.75 15V13.75H17C17.1989 13.75 17.3897 13.671 17.5303 13.5303C17.671 13.3897 17.75 13.1989 17.75 13C17.75 12.8011 17.671 12.6103 17.5303 12.4697C17.3897 12.329 17.1989 12.25 17 12.25H15.75V11Z" fill="black"/>
<path fill-rule="evenodd" clip-rule="evenodd" d="M3.29305 4.75109C3.35899 4.56347 3.49674 4.40972 3.67601 4.32365C3.85529 4.23757 4.06141 4.22622 4.24905 4.29209L4.55005 4.39809C5.16705 4.61509 5.69005 4.79909 6.10305 5.00109C6.54305 5.21809 6.92105 5.48409 7.20505 5.90009C7.48705 6.31209 7.60405 6.76509 7.65705 7.26209L7.66805 7.37009H19.1201C19.9391 7.37009 20.7731 7.37009 21.4601 7.44709C21.8101 7.48609 22.1571 7.54809 22.4631 7.65609C22.7631 7.76109 23.0941 7.93409 23.3291 8.24009C23.7111 8.73609 23.7781 9.31409 23.7421 9.90009C23.7071 10.4581 23.5691 11.1521 23.4041 11.9771L23.3941 12.0301L23.3921 12.0341L22.8841 14.5041C22.7341 15.2301 22.6081 15.8411 22.4451 16.3241C22.2731 16.8341 22.0351 17.2841 21.6081 17.6321C21.1811 17.9791 20.6921 18.1221 20.1571 18.1881C19.6521 18.2501 19.0271 18.2501 18.2871 18.2501H12.8801C11.5351 18.2501 10.4451 18.2501 9.58705 18.1281C8.69005 18.0011 7.93705 17.7281 7.34405 17.1021C6.79705 16.5261 6.50505 15.9141 6.35905 15.0601C6.22205 14.2601 6.20905 13.2121 6.20905 11.7601V9.03809C6.20905 8.29809 6.20705 7.80309 6.16605 7.42309C6.12605 7.06009 6.05705 6.87809 5.96605 6.74609C5.87905 6.61709 5.74605 6.49609 5.44205 6.34809C5.11905 6.19009 4.68005 6.03409 4.01205 5.79909L3.75205 5.70809C3.65895 5.67555 3.57317 5.62496 3.49964 5.55923C3.42612 5.49349 3.36627 5.4139 3.32355 5.32501C3.28082 5.23612 3.25604 5.13967 3.25064 5.04119C3.24523 4.94271 3.26031 4.84413 3.29305 4.75109ZM7.70805 8.87009V11.7601C7.70805 13.2491 7.72605 14.1581 7.83805 14.8071C7.93905 15.4021 8.11205 15.7321 8.43205 16.0701C8.70505 16.3581 9.08205 16.5421 9.79705 16.6431C10.5371 16.7481 11.5211 16.7501 12.9371 16.7501H18.2411C19.0401 16.7501 19.5711 16.7491 19.9751 16.7001C20.3571 16.6531 20.5351 16.5711 20.6601 16.4691C20.7851 16.3671 20.9001 16.2091 21.0241 15.8441C21.1541 15.4591 21.2621 14.9391 21.4241 14.1561L21.9221 11.7361V11.7341C22.1001 10.8441 22.2171 10.2521 22.2441 9.80809C22.2701 9.38709 22.2041 9.23909 22.1431 9.15809C22.0893 9.11953 22.0294 9.09013 21.9661 9.07109C21.7475 9.0025 21.5222 8.95758 21.2941 8.93709C20.6991 8.87109 19.9451 8.87009 19.0891 8.87009H7.70805ZM7.25005 21.5001C7.25005 22.0968 7.48711 22.6691 7.90906 23.0911C8.33102 23.513 8.90332 23.7501 9.50005 23.7501C10.0968 23.7501 10.6691 23.513 11.091 23.0911C11.513 22.6691 11.7501 22.0968 11.7501 21.5001C11.7501 20.9034 11.513 20.3311 11.091 19.9091C10.6691 19.4871 10.0968 19.2501 9.50005 19.2501C8.90332 19.2501 8.33102 19.4871 7.90906 19.9091C7.48711 20.3311 7.25005 20.9034 7.25005 21.5001ZM9.50005 22.2501C9.30114 22.2501 9.11037 22.1711 8.96972 22.0304C8.82907 21.8898 8.75005 21.699 8.75005 21.5001C8.75005 21.3012 8.82907 21.1104 8.96972 20.9698C9.11037 20.8291 9.30114 20.7501 9.50005 20.7501C9.69896 20.7501 9.88973 20.8291 10.0304 20.9698C10.171 21.1104 10.2501 21.3012 10.2501 21.5001C10.2501 21.699 10.171 21.8898 10.0304 22.0304C9.88973 22.1711 9.69896 22.2501 9.50005 22.2501ZM16.2501 21.5001C16.2501 21.7956 16.3083 22.0882 16.4213 22.3611C16.5344 22.6341 16.7001 22.8822 16.9091 23.0911C17.118 23.3 17.366 23.4657 17.639 23.5788C17.912 23.6919 18.2046 23.7501 18.5001 23.7501C18.7955 23.7501 19.0881 23.6919 19.3611 23.5788C19.6341 23.4657 19.8821 23.3 20.091 23.0911C20.3 22.8822 20.4657 22.6341 20.5788 22.3611C20.6919 22.0882 20.7501 21.7956 20.7501 21.5001C20.7501 20.9034 20.513 20.3311 20.091 19.9091C19.6691 19.4871 19.0968 19.2501 18.5001 19.2501C17.9033 19.2501 17.331 19.4871 16.9091 19.9091C16.4871 20.3311 16.2501 20.9034 16.2501 21.5001ZM18.5001 22.2501C18.3011 22.2501 18.1104 22.1711 17.9697 22.0304C17.8291 21.8898 17.7501 21.699 17.7501 21.5001C17.7501 21.3012 17.8291 21.1104 17.9697 20.9698C18.1104 20.8291 18.3011 20.7501 18.5001 20.7501C18.699 20.7501 18.8897 20.8291 19.0304 20.9698C19.171 21.1104 19.2501 21.3012 19.2501 21.5001C19.2501 21.699 19.171 21.8898 19.0304 22.0304C18.8897 22.1711 18.699 22.2501 18.5001 22.2501Z" fill="black"/>
</svg>
