<svg width="24" height="24" viewBox="0 0 24 24" fill="none" xmlns="http://www.w3.org/2000/svg">
<g clip-path="url(#clip0_166_485)">
<path d="M9 18C9.53043 18 10.0391 17.7893 10.4142 17.4142C10.7893 17.0391 11 16.5304 11 16C11 15.4696 10.7893 14.9609 10.4142 14.5858C10.0391 14.2107 9.53043 14 9 14C8.46957 14 7.96086 14.2107 7.58579 14.5858C7.21071 14.9609 7 15.4696 7 16C7 16.5304 7.21071 17.0391 7.58579 17.4142C7.96086 17.7893 8.46957 18 9 18ZM19 18C19.5304 18 20.0391 17.7893 20.4142 17.4142C20.7893 17.0391 21 16.5304 21 16C21 15.4696 20.7893 14.9609 20.4142 14.5858C20.0391 14.2107 19.5304 14 19 14C18.4696 14 17.9609 14.2107 17.5858 14.5858C17.2107 14.9609 17 15.4696 17 16C17 16.5304 17.2107 17.0391 17.5858 17.4142C17.9609 17.7893 18.4696 18 19 18Z" stroke="#0CFF95" stroke-width="1.5" stroke-miterlimit="1.5" stroke-linecap="round" stroke-linejoin="round"/>
<path d="M11.05 16H16V5.6C16 5.44087 15.9368 5.28826 15.8243 5.17574C15.7117 5.06321 15.5591 5 15.4 5H2M6.65 16H4.6C4.52121 16 4.44319 15.9845 4.37039 15.9543C4.29759 15.9242 4.23145 15.88 4.17574 15.8243C4.12002 15.7685 4.07583 15.7024 4.04567 15.6296C4.01552 15.5568 4 15.4788 4 15.4V10.5" stroke="#0CFF95" stroke-width="1.5" stroke-linecap="round"/>
<path d="M3 8H7" stroke="#0CFF95" stroke-width="1.5" stroke-linecap="round" stroke-linejoin="round"/>
<path d="M16 8H21.61C21.726 8.00003 21.8395 8.03367 21.9367 8.09685C22.034 8.16003 22.1108 8.25005 22.158 8.356L23.948 12.384C23.9821 12.4605 23.9998 12.5433 24 12.627V15.4C24 15.4788 23.9845 15.5568 23.9543 15.6296C23.9242 15.7024 23.88 15.7685 23.8243 15.8243C23.7685 15.88 23.7024 15.9242 23.6296 15.9543C23.5568 15.9845 23.4788 16 23.4 16H21.5M16 16H17" stroke="#0CFF95" stroke-width="1.5" stroke-linecap="round"/>
</g>
<defs>
<clipPath id="clip0_166_485">
<rect width="24" height="24" fill="white"/>
</clipPath>
</defs>
</svg>
