<svg width="21" height="21" viewBox="0 0 21 21" fill="none" xmlns="http://www.w3.org/2000/svg">
<path d="M5.5 8H18L16.414 13.55C16.2945 13.9678 16.0422 14.3353 15.6952 14.5969C15.3483 14.8585 14.9255 15 14.491 15H7.791C7.29846 15.0003 6.82314 14.8188 6.45612 14.4903C6.0891 14.1619 5.85618 13.7095 5.802 13.22L5 6H3" stroke="black" stroke-linecap="round" stroke-linejoin="round"/>
<path d="M7 17C7.55228 17 8 16.5523 8 16C8 15.4477 7.55228 15 7 15C6.44772 15 6 15.4477 6 16C6 16.5523 6.44772 17 7 17Z" fill="black"/>
<path d="M15 17C15.5523 17 16 16.5523 16 16C16 15.4477 15.5523 15 15 15C14.4477 15 14 15.4477 14 16C14 16.5523 14.4477 17 15 17Z" fill="black"/>
</svg>
