<svg width="189" height="62" viewBox="0 0 189 62" fill="none" xmlns="http://www.w3.org/2000/svg">
<g clip-path="url(#clip0_168_472)">
<path d="M14.4728 52.6559H7.05078L11.1506 45.2517C12.9723 46.3258 14.9385 47.186 17.0015 47.8117C17.047 47.8243 17.0907 47.84 17.1326 47.8526" stroke="#15613C" stroke-width="2.19949" stroke-miterlimit="10"/>
<path d="M43.6138 3.05176e-05L39.5943 7.24663L37.2805 11.4418L19.4551 43.6451C17.3188 43.0807 15.2985 42.2071 13.4731 41.0583L31.2863 8.86452L33.6123 4.66779L36.1935 0.0047566L43.6138 3.05176e-05Z" stroke="#15613C" stroke-width="2.19949" stroke-miterlimit="10"/>
<path d="M14.4729 52.656H47.1021L49.8073 47.8071L47.1458 52.6135" stroke="#15613C" stroke-width="2.19949" stroke-miterlimit="10"/>
<path d="M31.2863 8.8644L13.4731 41.0582C8.24959 37.7657 4.8418 32.367 4.8418 26.2673C4.8418 16.2402 14.0446 8.11296 25.3986 8.11296C27.3909 8.10896 29.3735 8.36201 31.2863 8.8644Z" stroke="#15613C" stroke-width="2.19949" stroke-miterlimit="10"/>
<path d="M45.9557 26.2626C45.9557 36.2897 36.7529 44.4201 25.3988 44.4201C23.3872 44.4232 21.3858 44.1631 19.457 43.6481L37.2807 11.4417C42.5287 14.7342 45.9557 20.1455 45.9557 26.2626Z" stroke="#15613C" stroke-width="2.19949" stroke-miterlimit="10"/>
<path d="M19.4587 43.6482C17.3209 43.0832 15.2994 42.2084 13.4732 41.0583C8.24966 37.7658 4.84187 32.3671 4.84187 26.2673C4.84187 16.2402 14.0447 8.11302 25.3987 8.11302C27.3912 8.11055 29.3739 8.36519 31.2863 8.86918L33.6124 4.66773C30.9618 3.88191 28.1889 3.48304 25.3987 3.48622C11.1611 3.48149 -0.378174 13.6819 -0.378174 26.2626C-0.378174 34.1882 4.20225 41.1686 11.1559 45.2471C12.9776 46.3211 14.9437 47.1814 17.0068 47.8071C17.0522 47.8197 17.0959 47.8354 17.1379 47.848" stroke="#15613C" stroke-width="2.19949" stroke-miterlimit="10"/>
<path d="M49.227 48.8546L49.2497 48.8152L49.2707 48.7774L49.8072 47.8479H17.1274C17.1274 47.8479 16.4668 47.9535 14.4675 46.9027" stroke="#15613C" stroke-width="2.19949" stroke-miterlimit="10"/>
<path d="M39.5996 7.24962C46.576 11.325 51.1756 18.3196 51.1756 26.2625C51.1756 36.2471 43.9109 44.7303 33.7959 47.807" stroke="#15613C" stroke-width="2.19949" stroke-miterlimit="10"/>
<path d="M70.4376 18.6317C76.818 18.6317 82.0258 22.8284 82.0258 28.9533C82.0258 35.5698 76.783 39.7429 70.2645 39.7429C63.3668 39.7429 58.3652 35.2027 58.3652 29.2022C58.3652 23.887 62.5734 18.6317 70.4376 18.6317ZM69.9133 20.0006C66.3954 20.0006 63.809 23.1088 63.809 28.6115C63.809 33.8669 66.1193 38.3786 70.7748 38.3786C74.0516 38.3786 76.6048 35.5194 76.6048 29.8292C76.6118 23.668 73.9205 20.0006 69.9203 20.0006H69.9133Z" fill="#15613C"/>
<path d="M84.3694 39.2766V38.2227C86.3354 37.9423 86.4053 37.7863 86.4053 35.8281V21.6815C86.4053 20.0652 86.1974 19.8793 84.4043 19.5359V18.5418C86.7846 18.3244 89.198 17.9511 90.8547 17.4848V35.825C90.8547 37.873 90.9578 38.0006 92.9238 38.2195V39.2766H84.3694Z" fill="#15613C"/>
<path d="M102.787 25.0983C107.651 25.0983 110.719 28.3939 110.719 32.1244C110.719 37.1308 106.719 39.6482 102.649 39.6482C97.4412 39.6482 94.4756 36.1053 94.4756 32.4662C94.4756 27.7102 98.8201 25.0983 102.787 25.0983ZM102.373 26.3428C100.889 26.3428 99.4405 27.7417 99.4405 31.5651C99.4405 35.42 100.856 38.3738 103.028 38.3738C104.339 38.3738 105.753 37.5656 105.753 33.027C105.753 28.7043 104.512 26.3428 102.373 26.3428Z" fill="#15613C"/>
<path d="M122.514 29.514C121.617 27.3369 120.445 26.3428 118.823 26.3428C118.581 26.3363 118.34 26.3744 118.115 26.4549C117.89 26.5354 117.685 26.6566 117.514 26.8109C117.343 26.9652 117.209 27.1495 117.119 27.3524C117.03 27.5553 116.988 27.7725 116.995 27.9906C116.995 29.0776 117.858 29.6684 119.651 30.3836C122.447 31.5037 124.342 32.5607 124.342 35.0167C124.342 38.1249 121.065 39.6482 118.064 39.6482C116.271 39.6482 114.409 39.0275 113.685 38.7156C113.547 38.0004 113.236 35.8564 113.133 34.7678L114.27 34.5819C114.996 36.5401 116.41 38.3738 118.652 38.3738C119.962 38.3738 120.618 37.6586 120.618 36.7575C120.618 35.7933 120.093 35.0781 117.961 34.1455C115.69 33.1515 113.477 32.0629 113.477 29.4825C113.477 27.0265 115.719 25.0983 119.375 25.0983C121.03 25.0983 122.308 25.4134 123.101 25.5709C123.204 26.4106 123.513 28.4065 123.652 29.2399L122.514 29.514Z" fill="#15613C"/>
<path d="M136.068 29.514C135.17 27.3369 133.999 26.3428 132.374 26.3428C132.132 26.3361 131.891 26.3741 131.665 26.4545C131.44 26.5349 131.236 26.656 131.064 26.8104C130.893 26.9648 130.759 27.1492 130.67 27.3521C130.58 27.5551 130.538 27.7724 130.546 27.9907C130.546 29.0776 131.407 29.6684 133.202 30.3836C135.998 31.5037 137.893 32.5607 137.893 35.0167C137.893 38.1249 134.616 39.6482 131.615 39.6482C129.822 39.6482 127.959 39.0275 127.234 38.7156C127.098 38.0004 126.787 35.8564 126.684 34.7678L127.821 34.5819C128.548 36.5401 129.964 38.3801 132.199 38.3801C133.51 38.3801 134.165 37.6649 134.165 36.7638C134.165 35.7997 133.641 35.0844 131.51 34.1518C129.239 33.1578 127.026 32.0692 127.026 29.4888C127.026 27.0328 129.268 25.1046 132.924 25.1046C134.579 25.1046 135.855 25.4197 136.648 25.5772C136.753 26.4169 137.063 28.4128 137.201 29.2462L136.068 29.514Z" fill="#15613C"/>
<path d="M139.86 39.2765V38.2226C141.723 38.0037 141.929 37.8808 141.929 35.6721V29.6071C141.929 27.5244 141.755 27.4016 140.136 27.2125V26.187C142.249 25.9732 144.337 25.5985 146.379 25.0669V35.669C146.379 37.7831 146.517 38.0005 148.518 38.2195V39.2765H139.86ZM143.896 23.1718C143.245 23.1654 142.623 22.932 142.16 22.5207C141.697 22.1094 141.429 21.5522 141.412 20.9663C141.416 20.6721 141.484 20.3814 141.612 20.1109C141.741 19.8405 141.928 19.5957 142.162 19.3907C142.396 19.1857 142.673 19.0245 142.976 18.9163C143.28 18.8082 143.604 18.7554 143.93 18.7608C144.256 18.7534 144.579 18.8051 144.882 18.9129C145.185 19.0207 145.46 19.1823 145.692 19.3881C145.923 19.594 146.107 19.8398 146.231 20.111C146.355 20.3821 146.417 20.673 146.414 20.9663C146.41 21.2604 146.342 21.551 146.213 21.8213C146.085 22.0917 145.898 22.3364 145.664 22.5413C145.43 22.7463 145.153 22.9076 144.849 23.0158C144.546 23.124 144.222 23.177 143.896 23.1718Z" fill="#15613C"/>
<path d="M161.452 39.6482C160.52 39.6482 159.762 39.3694 159.313 38.996C158.922 38.6784 158.615 38.2853 158.416 37.846C157.106 38.6227 155.416 39.6482 154.76 39.6482C151.789 39.6482 150.07 37.5656 150.07 35.639C150.07 33.9911 150.898 33.2444 152.726 32.5907C154.76 31.907 157.485 31.1618 158.278 30.5427V29.1753C158.278 27.5574 157.623 26.6547 156.141 26.6547C155.873 26.6528 155.608 26.7082 155.368 26.8164C155.128 26.9245 154.92 27.0824 154.76 27.277C154.346 27.7732 154.208 28.3955 153.934 29.325C153.691 30.1646 153.14 30.382 152.45 30.382C151.554 30.382 150.414 29.6369 150.414 28.7657C150.414 28.2065 150.828 27.8016 151.622 27.3038C153.174 26.3712 155.209 25.4701 157.141 25.0983C158.519 25.0983 159.692 25.3787 160.693 26.001C162.175 26.9336 162.59 28.238 162.59 29.8244V35.2026C162.59 36.696 163.142 37.0678 163.694 37.0678C164.066 37.0547 164.431 36.9704 164.764 36.8205L165.143 37.8775L161.452 39.6482ZM158.278 31.814C157.658 32.1291 157.037 32.4442 156.347 32.7781C155.278 33.2759 154.657 33.8352 154.657 34.8922C154.657 36.6251 156.003 37.2553 156.754 37.2553C157.237 37.2553 157.719 37.2238 158.271 36.7575L158.278 31.814Z" fill="#15613C"/>
</g>
<defs>
<clipPath id="clip0_168_472">
<rect width="189" height="62" fill="white"/>
</clipPath>
</defs>
</svg>
