<svg width="14" height="15" viewBox="0 0 14 15" fill="none" xmlns="http://www.w3.org/2000/svg">
<path d="M7.00412 1.31613C8.87553 1.31613 9.09715 1.32469 9.83313 1.35895C10.5171 1.39036 10.8865 1.51026 11.1327 1.61019C11.4583 1.74151 11.6936 1.90139 11.9371 2.15548C12.1833 2.41242 12.3338 2.65509 12.4597 2.99483C12.5554 3.25178 12.6703 3.64005 12.7004 4.35093C12.7333 5.12176 12.7415 5.35301 12.7415 7.30294C12.7415 9.25572 12.7333 9.48697 12.7004 10.2549C12.6703 10.9687 12.5554 11.3541 12.4597 11.611C12.3338 11.9508 12.1806 12.1963 11.9371 12.4504C11.6909 12.7073 11.4583 12.8644 11.1327 12.9957C10.8865 13.0956 10.5144 13.2155 9.83313 13.2469C9.09441 13.2812 8.8728 13.2897 7.00412 13.2897C5.13271 13.2897 4.91109 13.2812 4.17511 13.2469C3.49112 13.2155 3.12176 13.0956 2.87552 12.9957C2.54994 12.8644 2.31464 12.7045 2.07114 12.4504C1.8249 12.1934 1.67442 11.9508 1.54857 11.611C1.45281 11.3541 1.3379 10.9658 1.3078 10.2549C1.27497 9.48411 1.26676 9.25286 1.26676 7.30294C1.26676 5.35016 1.27497 5.11891 1.3078 4.35093C1.3379 3.63719 1.45281 3.25178 1.54857 2.99483C1.67442 2.65509 1.82764 2.40957 2.07114 2.15548C2.31738 1.89853 2.54994 1.74151 2.87552 1.61019C3.12176 1.51026 3.49385 1.39036 4.17511 1.35895C4.91109 1.32469 5.13271 1.31613 7.00412 1.31613ZM7.00412 0C5.10261 0 4.86458 0.00856482 4.11766 0.0428241C3.37347 0.0770834 2.86184 0.202701 2.41861 0.382562C1.95623 0.570988 1.56498 0.819368 1.17647 1.22762C0.785227 1.63303 0.547197 2.04128 0.366622 2.52091C0.194255 2.98627 0.0738716 3.51729 0.0410398 4.29383C0.00820795 5.07608 0 5.32446 0 7.30865C0 9.29283 0.00820795 9.54121 0.0410398 10.3206C0.0738716 11.0972 0.194255 11.631 0.366622 12.0935C0.547197 12.576 0.785227 12.9843 1.17647 13.3897C1.56498 13.7951 1.95623 14.0463 2.41587 14.2319C2.86184 14.4117 3.37073 14.5374 4.11492 14.5716C4.86184 14.6059 5.09987 14.6144 7.00138 14.6144C8.90289 14.6144 9.14092 14.6059 9.88785 14.5716C10.632 14.5374 11.1437 14.4117 11.5869 14.2319C12.0465 14.0463 12.4378 13.7951 12.8263 13.3897C13.2148 12.9843 13.4556 12.576 13.6334 12.0964C13.8058 11.631 13.9262 11.1 13.959 10.3235C13.9918 9.54406 14 9.29568 14 7.3115C14 5.32732 13.9918 5.07894 13.959 4.29954C13.9262 3.523 13.8058 2.98912 13.6334 2.52662C13.461 2.04128 13.223 1.63303 12.8318 1.22762C12.4433 0.822223 12.052 0.570988 11.5924 0.385417C11.1464 0.205556 10.6375 0.0799383 9.89332 0.045679C9.14366 0.00856482 8.90563 0 7.00412 0Z" fill="#000100"/>
</svg>
