<svg width="14" height="15" viewBox="0 0 14 15" fill="none" xmlns="http://www.w3.org/2000/svg">
<path d="M12.9666 0H1.03348C0.759381 0 0.496513 0.113618 0.302698 0.315859C0.108884 0.5181 0 0.792398 0 1.07841V13.5303C0 13.8163 0.108884 14.0906 0.302698 14.2929C0.496513 14.4951 0.759381 14.6087 1.03348 14.6087H12.9666C13.2407 14.6087 13.5035 14.4951 13.6974 14.2929C13.8912 14.0906 14 13.8163 14 13.5303V1.07841C14 0.792398 13.8912 0.5181 13.6974 0.315859C13.5035 0.113618 13.2407 0 12.9666 0ZM4.17279 12.4448H2.06792V5.46814H4.17279V12.4448ZM3.1189 4.50132C2.88014 4.49992 2.64713 4.42474 2.44927 4.28529C2.25141 4.14583 2.09758 3.94834 2.00719 3.71774C1.91679 3.48714 1.89388 3.23376 1.94136 2.98959C1.98883 2.74542 2.10456 2.52139 2.27393 2.34579C2.44331 2.17018 2.65873 2.05087 2.89303 2.0029C3.12733 1.95493 3.36999 1.98046 3.5904 2.07626C3.81081 2.17206 3.99908 2.33385 4.13145 2.5412C4.26383 2.74855 4.33437 2.99217 4.33418 3.24132C4.33643 3.40812 4.30648 3.57369 4.24611 3.72815C4.18573 3.88262 4.09617 4.02282 3.98276 4.1404C3.86936 4.25798 3.73442 4.35053 3.58601 4.41254C3.4376 4.47455 3.27874 4.50474 3.1189 4.50132ZM11.9312 12.4509H9.82726V8.63945C9.82726 7.51539 9.36934 7.16843 8.77823 7.16843C8.15406 7.16843 7.54155 7.65945 7.54155 8.66786V12.4509H5.43669V5.47321H7.46086V6.44002H7.48808C7.69128 6.01089 8.40295 5.27741 9.48892 5.27741C10.6634 5.27741 11.9321 6.0048 11.9321 8.13525L11.9312 12.4509Z" fill="#0A66C2"/>
</svg>
