<svg width="16" height="12" viewBox="0 0 16 12" fill="none" xmlns="http://www.w3.org/2000/svg">
<path d="M2.353 0.134409C2.44358 0.0465053 2.56537 -0.00182268 2.69158 5.26063e-05C2.81778 0.00192789 2.93808 0.0538526 3.026 0.144408C3.12166 0.244913 3.17409 0.378922 3.17203 0.517655C3.16998 0.656389 3.1136 0.788783 3.015 0.886409C1.72205 2.1949 0.997907 3.96088 1 5.80041C1 7.79041 1.83 9.58641 3.164 10.8604C3.21528 10.9081 3.25657 10.9656 3.28551 11.0294C3.31445 11.0932 3.33045 11.1621 3.33258 11.2321C3.33472 11.3021 3.32296 11.3719 3.29797 11.4373C3.27298 11.5028 3.23527 11.5626 3.187 11.6134C3.10098 11.7023 2.98369 11.7541 2.86007 11.7578C2.73644 11.7615 2.61624 11.7169 2.525 11.6334C1.72698 10.886 1.09106 9.98255 0.6567 8.97915C0.222346 7.97575 -0.00117614 6.89379 4.654e-06 5.80041C4.654e-06 3.58641 0.900005 1.58241 2.353 0.134409ZM12.985 0.886409C12.8865 0.788651 12.8304 0.656183 12.8285 0.517451C12.8266 0.378718 12.8792 0.244784 12.975 0.144408C13.0629 0.0541566 13.183 0.00242581 13.3089 0.000551378C13.4349 -0.00132306 13.5565 0.046812 13.647 0.134409C14.3936 0.876894 14.9859 1.7598 15.3898 2.73225C15.7936 3.70469 16.001 4.74744 16 5.80041C16 8.10041 15.03 10.1744 13.475 11.6334C13.3838 11.7169 13.2636 11.7615 13.1399 11.7578C13.0163 11.7541 12.899 11.7023 12.813 11.6134C12.7649 11.5626 12.7273 11.5029 12.7024 11.4375C12.6775 11.3722 12.6658 11.3025 12.6679 11.2326C12.6701 11.1627 12.686 11.0939 12.7149 11.0302C12.7437 10.9665 12.7849 10.9091 12.836 10.8614C13.5209 10.2085 14.0659 9.42324 14.4379 8.55322C14.8099 7.6832 15.0012 6.74662 15 5.80041C15.0024 3.96054 14.2782 2.19514 12.985 0.886409ZM4.132 1.89041C4.22112 1.80554 4.34029 1.75955 4.46332 1.76255C4.58634 1.76555 4.70314 1.8173 4.788 1.90641C4.99601 2.11441 4.975 2.45641 4.77 2.66641C3.95533 3.50624 3.4998 4.63036 3.5 5.80041C3.5 7.09041 4.043 8.25441 4.914 9.07541C5.134 9.28241 5.164 9.63641 4.949 9.85141C4.86659 9.93709 4.75438 9.98779 4.6356 9.99301C4.51683 9.99822 4.40061 9.95755 4.311 9.87941C3.74085 9.36382 3.28511 8.73443 2.97318 8.03185C2.66125 7.32928 2.50006 6.56912 2.5 5.80041C2.4989 5.07298 2.64264 4.35261 2.92284 3.6813C3.20304 3.01 3.61408 2.4012 4.132 1.89041ZM11.23 2.66641C11.025 2.45641 11.004 2.11441 11.212 1.90641C11.2969 1.8173 11.4137 1.76555 11.5367 1.76255C11.6597 1.75955 11.7789 1.80554 11.868 1.89041C12.3859 2.4012 12.797 3.01 13.0772 3.6813C13.3574 4.35261 13.5011 5.07298 13.5 5.80041C13.5002 6.56921 13.3393 7.32952 13.0275 8.03227C12.7157 8.73502 12.2601 9.36461 11.69 9.88041C11.6 9.95889 11.4832 9.99958 11.364 9.99399C11.2447 9.9884 11.1322 9.93696 11.05 9.85041C10.836 9.63641 10.866 9.28241 11.086 9.07541C11.5325 8.65472 11.8882 8.14719 12.1314 7.584C12.3745 7.02081 12.5 6.41385 12.5 5.80041C12.5002 4.63036 12.0447 3.50624 11.23 2.66641ZM8 4.55041C7.66848 4.55041 7.35054 4.6821 7.11612 4.91652C6.8817 5.15095 6.75 5.46889 6.75 5.80041C6.75 6.13193 6.8817 6.44987 7.11612 6.68429C7.35054 6.91871 7.66848 7.05041 8 7.05041C8.33153 7.05041 8.64947 6.91871 8.88389 6.68429C9.11831 6.44987 9.25 6.13193 9.25 5.80041C9.25 5.46889 9.11831 5.15095 8.88389 4.91652C8.64947 4.6821 8.33153 4.55041 8 4.55041Z" fill="black"/>
</svg>
