<svg width="14" height="15" viewBox="0 0 14 15" fill="none" xmlns="http://www.w3.org/2000/svg">
<path d="M7.00573 0C3.13672 0 0 3.2731 0 7.31033C0 10.4089 1.84513 13.0563 4.45138 14.1213C4.38795 13.5437 4.33606 12.6532 4.47444 12.0214C4.6013 11.4498 5.29322 8.38732 5.29322 8.38732C5.29322 8.38732 5.08564 7.9481 5.08564 7.30431C5.08564 6.28749 5.65071 5.52938 6.35417 5.52938C6.95384 5.52938 7.24214 5.99868 7.24214 6.55824C7.24214 7.18398 6.86158 8.12259 6.65977 8.99502C6.49256 9.72304 7.0115 10.3187 7.69766 10.3187C8.94312 10.3187 9.90028 8.94688 9.90028 6.97339C9.90028 5.22252 8.69518 4.00113 6.97114 4.00113C4.97609 4.00113 3.80558 5.55946 3.80558 7.17195C3.80558 7.79769 4.03622 8.47156 4.32453 8.83858C4.38219 8.91078 4.38795 8.97696 4.37066 9.04917C4.31876 9.2778 4.19767 9.77719 4.17461 9.87947C4.14578 10.0118 4.07082 10.0419 3.9382 9.97574C3.06176 9.54856 2.51399 8.21886 2.51399 7.14186C2.51399 4.83745 4.11695 2.71956 7.14412 2.71956C9.57162 2.71956 11.4629 4.52458 11.4629 6.94331C11.4629 9.46432 9.94065 11.492 7.83028 11.492C7.12105 11.492 6.45219 11.1069 6.22732 10.6496C6.22732 10.6496 5.87559 12.0455 5.7891 12.3885C5.63342 13.0262 5.20673 13.8204 4.91843 14.3078C5.57576 14.5184 6.26768 14.6327 6.9942 14.6327C10.8632 14.6327 13.9999 11.3596 13.9999 7.32236C14.0115 3.2731 10.8747 0 7.00573 0Z" fill="#E60019"/>
</svg>
