<svg width="14" height="11" viewBox="0 0 14 11" fill="none" xmlns="http://www.w3.org/2000/svg">
<path d="M13.7073 1.60696C13.6282 1.29617 13.4722 1.01252 13.255 0.784402C13.0377 0.556283 12.7669 0.391698 12.4696 0.307116C11.375 3.62812e-08 7.00002 0 7.00002 0C7.00002 0 2.62501 3.62812e-08 1.53046 0.307116C1.23313 0.391698 0.962304 0.556283 0.745087 0.784402C0.52787 1.01252 0.37188 1.29617 0.292728 1.60696C3.47695e-08 2.75408 0 5.14626 0 5.14626C0 5.14626 3.47695e-08 7.53844 0.292728 8.68556C0.37188 8.99636 0.52787 9.28 0.745087 9.50812C0.962304 9.73624 1.23313 9.90083 1.53046 9.98541C2.62501 10.2925 7.00002 10.2925 7.00002 10.2925C7.00002 10.2925 11.375 10.2925 12.4696 9.98541C12.7669 9.90083 13.0377 9.73624 13.255 9.50812C13.4722 9.28 13.6282 8.99636 13.7073 8.68556C14 7.53844 14 5.14626 14 5.14626C14 5.14626 14 2.75408 13.7073 1.60696Z" fill="#FF0302"/>
</svg>
