<svg width="12" height="15" viewBox="0 0 12 15" fill="none" xmlns="http://www.w3.org/2000/svg">
<path d="M11.7486 11.585C11.5331 12.1044 11.2781 12.5825 10.9826 13.022C10.5799 13.6212 10.2501 14.036 9.99595 14.2663C9.60198 14.6444 9.17988 14.838 8.72788 14.849C8.40339 14.849 8.01206 14.7527 7.55654 14.5572C7.09952 14.3627 6.67953 14.2663 6.2955 14.2663C5.89275 14.2663 5.46079 14.3627 4.99877 14.5572C4.53603 14.7527 4.16326 14.8545 3.87826 14.8646C3.44481 14.8839 3.01277 14.6847 2.58152 14.2663C2.30627 14.0158 1.96199 13.5864 1.54956 12.978C1.10706 12.3283 0.743255 11.5749 0.458247 10.716C0.153013 9.78833 0 8.88998 0 8.02027C0 7.02401 0.206303 6.16475 0.619525 5.44469C0.944282 4.86632 1.37632 4.41008 1.91705 4.07515C2.45779 3.74022 3.04205 3.56954 3.67125 3.55862C4.01553 3.55862 4.467 3.66974 5.02805 3.88814C5.58751 4.10726 5.94674 4.21839 6.10424 4.21839C6.22199 4.21839 6.62105 4.08845 7.29756 3.82941C7.93731 3.58918 8.47725 3.48971 8.91958 3.52889C10.1182 3.62983 11.0187 4.12286 11.6175 5.01112C10.5456 5.68887 10.0153 6.63815 10.0258 7.85592C10.0355 8.80446 10.3653 9.5938 11.0134 10.2205C11.3071 10.5114 11.6351 10.7362 12.0001 10.8959C11.9209 11.1354 11.8374 11.3648 11.7486 11.585ZM8.99961 0.297402C8.99961 1.04087 8.73931 1.73504 8.22047 2.37755C7.59435 3.14138 6.83703 3.58275 6.01577 3.51311C6.00531 3.42391 5.99924 3.33004 5.99924 3.2314C5.99924 2.51767 6.297 1.75385 6.82577 1.12932C7.08976 0.813104 7.42551 0.550179 7.83267 0.340438C8.23894 0.133827 8.62323 0.0195666 8.98466 0C8.99521 0.0993895 8.99961 0.198785 8.99961 0.297393V0.297402Z" fill="black"/>
</svg>
